# xmcd
#
# Track frame offsets:
#  150
#  16186
#  30563
#  49193
#  62509
#  71809
#  84614
#  100351
#  121010
#  138116
#  153427
#  169169
#  182969
#  200832
#
# Disc length: 2842 seconds
#
# Revision: 0
# Processed by: cddbd v1.5.1PL0 Copyright (c) Steve Scherf et al.
# Submitted via: AltoMP3_Maker 3.0
#
DISCID=bd0b180e
DTITLE=John Schets - For You
DYEAR=1900
DGENRE=
TTITLE0=When There's No One Around
TTITLE1=Kick Me When I'm Down
TTITLE2=Four Strong Winds
TTITLE3=For You
TTITLE4=O (Like In Love)
TTITLE5=Dancin' All Around it
TTITLE6=One Love Ago
TTITLE7=First Days Of Fall
TTITLE8=Fort Worth Blues
TTITLE9=Hillbilly Highway
TTITLE10=Love and Laughter
TTITLE11=Don't Come Cryin' To Me
TTITLE12=Gone Crazy
TTITLE13=This Old Guitar
EXTD=
EXTT0=
EXTT1=
EXTT2=
EXTT3=
EXTT4=
EXTT5=
EXTT6=
EXTT7=
EXTT8=
EXTT9=
EXTT10=
EXTT11=
EXTT12=
EXTT13=
PLAYORDER=
